<svg xmlns="http://www.w3.org/2000/svg" xmlns:xlink="http://www.w3.org/1999/xlink" width="50" height="88" viewBox="0 0 50 88">
  <defs>
    <clipPath id="clip-path">
      <rect id="長方形_640" data-name="長方形 640" width="26.07" height="34" fill="#333"/>
    </clipPath>
  </defs>
  <g id="グループ_122" data-name="グループ 122" transform="translate(-100 -8272)">
    <rect id="長方形_132" data-name="長方形 132" width="50" height="88" transform="translate(100 8272)" fill="#fff"/>
    <g id="グループ_117" data-name="グループ 117" transform="translate(111.965 8299)">
      <g id="グループ_116" data-name="グループ 116" clip-path="url(#clip-path)">
        <path id="パス_157" data-name="パス 157" d="M2.331,1.441C-.005,2.956-.464,7.692.418,11.552a34.866,34.866,0,0,0,4.61,10.835,36.209,36.209,0,0,0,8.013,8.628c3.165,2.379,7.676,3.892,10.012,2.377a11.831,11.831,0,0,0,3.016-3.235l-1.255-1.935L21.363,22.9c-.256-.4-1.865-.034-2.682.429a7.779,7.779,0,0,0-2.117,2.3c-.756.437-1.389,0-2.711-.607-1.625-.748-3.453-3.072-4.907-5.176-1.328-2.186-2.7-4.8-2.725-6.592-.016-1.456-.155-2.211.551-2.723a7.78,7.78,0,0,0,2.964-1c.756-.557,1.742-1.878,1.485-2.274L7.77,1.941,6.515.006A11.832,11.832,0,0,0,2.331,1.441" transform="translate(0 0)" fill="#333"/>
      </g>
    </g>
  </g>
</svg>
